<svg xmlns="http://www.w3.org/2000/svg" width="24" height="24" viewBox="0 0 24 24">
    <path fill="#000" fill-rule="evenodd" d="M12.05 14.06c1.317.09 2.463-.889 2.57-2.181A2.386 2.386 0 0 0 12.24 9.3a2.398 2.398 0 0 0-2.372 2.19 2.389 2.389 0 0 0 2.182 2.57zm.472-5.748a3.387 3.387 0 0 1 3.095 3.649c-.144 1.742-1.623 3.107-3.368 3.107a3.389 3.389 0 0 1-3.378-3.66c.153-1.836 1.79-3.25 3.65-3.096zm7.508 8.567l.413-2.813-5.638 2.058 5.225.755zM5.892 18.314l1.634-.597a2.418 2.418 0 0 0-2.422-1.15l.602 1.66c.035.096.124.108.186.087zM4.557 6.568L4.146 9.38l5.637-2.044-5.226-.768zM18.745 5.16l-1.621.587a2.419 2.419 0 0 0 2.336 1.109l-.581-1.602a.144.144 0 0 0-.134-.094zm1.016 8.09l1.645-.6a.145.145 0 0 0 .085-.187l-.583-1.61a2.416 2.416 0 0 0-1.147 2.397zM3.08 10.98l.582 1.606a2.416 2.416 0 0 0 1.2-2.401l-1.696.613a.142.142 0 0 0-.086.183zm5.385 6.394l10.356-3.78a3.397 3.397 0 0 1 1.747-3.681l-.763-2.104a3.38 3.38 0 0 1-.638.067 3.423 3.423 0 0 1-2.998-1.783L5.805 9.843a3.399 3.399 0 0 1-1.803 3.682l.76 2.1a3.404 3.404 0 0 1 3.703 1.749zm13.967-5.251a1.15 1.15 0 0 1-.681 1.465l-.241.088-.501 3.422a.928.928 0 0 1-1.046.782l-7.141-1.032-6.59 2.405a1.143 1.143 0 0 1-1.466-.686L2.14 11.322a1.14 1.14 0 0 1 .685-1.464l.254-.091.5-3.42a.932.932 0 0 1 1.047-.78l7.062 1.038c.02.003.037.015.057.02l6.61-2.395a1.164 1.164 0 0 1 1.465.684l2.612 7.209z"/>
</svg>
